<svg xmlns="http://www.w3.org/2000/svg" viewBox="0 0 24 24" fill="#4f46e5">
  <path d="M12 9a3.75 3.75 0 100 7.5A3.75 3.75 0 0012 9z"/>
  <path fill-rule="evenodd" d="M9.344 3.071a49.52 49.52 0 015.312 0c.967.052 1.83.585 2.332 1.39l.821 1.317c.24.383.645.643 1.11.71.386.054.77.113 1.152.177 1.432.239 2.429 1.493 2.429 2.909V18a3 3 0 01-3 3h-15a3 3 0 01-3-3V9.574c0-1.416.997-2.67 2.429-2.909.382-.064.766-.123 1.151-.178a1.56 1.56 0 001.11-.71l.822-1.315c.502-.806 1.365-1.34 2.332-1.39zM12 5.25a.75.75 0 01.75.75v.75h.75a.75.75 0 010 1.5h-.75v.75a.75.75 0 01-1.5 0v-.75h-.75a.75.75 0 010-1.5h.75V6a.75.75 0 01.75-.75zm-3 7.5a3 3 0 116 0 3 3 0 01-6 0z" clip-rule="evenodd"/>
</svg>
